<svg data-v-fde0c5aa="" xmlns="http://www.w3.org/2000/svg" viewBox="0 0 300 300" class="font"><!----><defs data-v-fde0c5aa=""><!----></defs><rect data-v-fde0c5aa="" fill="#ECE0E8" x="0" y="0" width="300px" height="300px" class="logo-background-square"></rect><defs data-v-fde0c5aa=""><linearGradient data-v-fde0c5aa="" gradientTransform="rotate(25)" id="7968d19c-910c-4e0a-9f3f-ab4aa0a33ce9" x1="0%" y1="0%" x2="100%" y2="0%"><stop data-v-fde0c5aa="" offset="0%" stop-color="#1E0B36" stop-opacity="1"></stop><stop data-v-fde0c5aa="" offset="100%" stop-color="#CA3782" stop-opacity="1"></stop></linearGradient></defs><g data-v-fde0c5aa="" id="60e7faa2-2067-4069-9eb9-4ffa84cd8c74" fill="url(#7968d19c-910c-4e0a-9f3f-ab4aa0a33ce9)" transform="matrix(6.906393491054463,0,0,6.906393491054463,47.18441989900697,98.8898063472901)"><path d="M6.79 2.21L6.79 2.21Q6.75 2.05 6.19 2.15L6.19 2.15L6.19 2.15Q5.50 2.28 5.33 2.54L5.33 2.54L5.33 2.54Q4.46 4.03 3.52 6.51L3.52 6.51L3.52 6.41L3.52 6.41Q3.52 5.55 3.36 2.12L3.36 2.12L3.36 2.12Q3.35 2.03 3.12 2.02L3.12 2.02L3.12 2.02Q2.97 1.92 2.56 2.00L2.56 2.00L2.56 2.00Q1.85 2.13 1.70 2.39L1.70 2.39L1.70 2.39Q-0.43 6.30-1.04 11.14L-1.04 11.14L-1.04 11.14Q-1.05 11.27-0.67 11.23L-0.67 11.23L-0.67 11.23Q-0.42 11.21-0.25 11.16L-0.25 11.16L-0.25 11.16Q0.40 10.99 0.42 10.75L0.42 10.75L0.42 10.75Q0.83 7.51 2.00 4.58L2.00 4.58L2.00 4.58Q2.05 5.81 2.06 6.71L2.06 6.71L2.06 6.71Q2.06 8.26 1.98 8.86L1.98 8.86L1.98 8.86Q1.80 10.15 1.79 10.99L1.79 10.99L1.79 10.99Q1.79 11.20 2.47 11.03L2.47 11.03L2.47 11.03Q3.15 10.86 3.24 10.66L3.24 10.66L3.24 10.66Q3.72 9.61 4.44 7.67L4.44 7.67L4.44 7.67Q5.22 5.54 5.59 4.66L5.59 4.66L5.59 4.66Q5.63 5.91 5.39 7.85L5.39 7.85L5.39 7.85Q5.06 10.57 5.02 11.04L5.02 11.04L5.02 11.04Q5.02 11.12 5.24 11.12L5.24 11.12L5.24 11.12Q5.46 11.13 5.74 11.08L5.74 11.08L5.74 11.08Q6.46 10.94 6.49 10.65L6.49 10.65L6.49 10.65Q6.54 9.88 6.72 8.54L6.72 8.54L6.72 8.54Q6.91 7.03 6.97 6.43L6.97 6.43L6.97 6.43Q7.21 3.95 6.79 2.21L6.79 2.21ZM10.57 4.48L10.57 4.48Q10.40 4.79 9.99 6.15L9.99 6.15L9.99 6.15Q9.50 7.85 9.23 8.60L9.23 8.60L9.23 8.60Q9.00 9.22 8.76 9.69L8.76 9.69L8.76 9.69Q8.66 9.89 8.54 10.06L8.54 10.06L8.54 10.06Q8.48 9.93 8.48 9.08L8.48 9.08L8.48 9.08Q8.47 6.54 9.73 4.07L9.73 4.07L9.73 4.07Q9.81 3.92 9.52 3.90L9.52 3.90L9.52 3.90Q9.33 3.90 9.15 3.93L9.15 3.93L9.15 3.93Q8.43 4.06 8.29 4.33L8.29 4.33L8.29 4.33Q7.44 6.00 7.12 8.15L7.12 8.15L7.12 8.15Q7.02 8.82 7.02 9.97L7.02 9.97L7.02 9.97Q7.01 10.73 7.64 10.88L7.64 10.88L7.64 10.88Q8.33 11.05 9.24 10.55L9.24 10.55L9.24 10.55Q9.40 10.47 9.56 10.33L9.56 10.33L9.56 10.33Q9.39 11.01 9.21 11.53L9.21 11.53L9.21 11.53Q8.68 13.15 8.05 13.78L8.05 13.78L8.05 13.78Q7.97 13.75 7.90 13.68L7.90 13.68L7.90 13.68Q7.55 13.40 7.66 12.44L7.66 12.44L7.66 12.44Q7.67 12.39 7.68 12.33L7.68 12.33L7.68 12.33Q7.70 12.20 7.31 12.24L7.31 12.24L7.31 12.24Q7.06 12.26 6.89 12.30L6.89 12.30L6.89 12.30Q6.25 12.48 6.21 12.72L6.21 12.72L6.21 12.72Q6.09 13.62 6.37 14.01L6.37 14.01L6.37 14.01Q6.78 14.60 7.90 14.38L7.90 14.38L7.90 14.38Q8.84 14.21 9.41 13.63L9.41 13.63L9.41 13.63Q9.80 13.23 10.15 12.53L10.15 12.53L10.15 12.53Q10.64 11.55 11.01 10.04L11.01 10.04L11.01 10.04Q11.61 7.57 11.81 6.40L11.81 6.40L11.81 6.40Q12.02 5.14 12.02 4.15L12.02 4.15L12.02 4.15Q12.02 3.93 11.34 4.12L11.34 4.12L11.34 4.12Q10.67 4.29 10.57 4.48L10.57 4.48ZM14.85 4.18L14.85 4.18Q14.84 4.18 14.84 4.18L14.84 4.18L14.84 4.18L14.84 4.18Q14.85 4.18 14.85 4.18L14.85 4.18ZM16.48 4.01L16.48 4.01Q16.00 3.53 15.00 3.69L15.00 3.69L15.00 3.69Q13.94 3.87 13.19 4.55L13.19 4.55L13.19 4.55Q12.20 5.42 11.89 7.32L11.89 7.32L11.89 7.32Q11.57 9.30 12.12 10.34L12.12 10.34L12.12 10.34Q12.60 11.27 14.11 10.77L14.11 10.77L14.11 10.77Q15.15 10.44 15.78 9.38L15.78 9.38L15.78 9.38Q15.87 9.24 15.57 9.22L15.57 9.22L15.57 9.22Q15.37 9.21 15.20 9.25L15.20 9.25L15.20 9.25Q14.51 9.37 14.35 9.64L14.35 9.64L14.35 9.64Q14.16 9.96 13.95 10.19L13.95 10.19L13.95 10.19Q13.91 10.22 13.85 10.27L13.85 10.27L13.85 10.27Q13.67 10.15 13.52 9.85L13.52 9.85L13.52 9.85Q13.28 9.34 13.25 8.37L13.25 8.37L13.25 8.37Q13.23 7.59 13.38 6.80L13.38 6.80L13.38 6.80Q13.54 5.98 13.87 5.29L13.87 5.29L13.87 5.29Q14.23 4.58 14.70 4.27L14.70 4.27L14.70 4.27Q14.70 4.27 14.71 4.26L14.71 4.26L14.72 4.26L14.72 4.26Q14.75 4.27 14.80 4.29L14.80 4.29L14.80 4.29Q14.93 4.35 15.07 4.48L15.07 4.48L15.07 4.48Q15.49 4.85 15.49 5.58L15.49 5.58L15.49 5.58Q15.49 6.13 15.13 6.54L15.13 6.54L15.13 6.54Q14.99 6.70 15.16 6.75L15.16 6.75L15.16 6.75Q15.28 6.79 15.47 6.77L15.47 6.77L15.47 6.77Q16.20 6.71 16.45 6.43L16.45 6.43L16.45 6.43Q16.92 5.90 16.94 5.22L16.94 5.22L16.94 5.22Q16.97 4.51 16.48 4.01L16.48 4.01ZM21.86 4.41L21.86 4.41Q21.69 3.82 20.84 3.94L20.84 3.94L20.84 3.94Q20.15 4.04 19.63 4.40L19.63 4.40L19.63 4.40Q19.24 4.66 18.89 5.13L18.89 5.13L18.89 5.13Q19.30 3.24 20.00 0.53L20.00 0.53L20.00 0.53Q20.06 0.28 19.41 0.40L19.41 0.40L19.41 0.40Q19.11 0.45 18.85 0.57L18.85 0.57L18.85 0.57Q18.58 0.70 18.56 0.79L18.56 0.79L18.56 0.79Q16.99 6.96 16.54 10.85L16.54 10.85L16.54 10.85Q16.52 11.03 17.21 10.88L17.21 10.88L17.21 10.88Q17.89 10.73 17.99 10.53L17.99 10.53L17.99 10.53Q18.05 10.37 18.57 8.85L18.57 8.85L18.57 8.85Q19.09 7.33 19.53 6.36L19.53 6.36L19.53 6.36Q20.02 5.26 20.41 4.78L20.41 4.78L20.41 4.78Q20.47 4.95 20.49 5.37L20.49 5.37L20.49 5.37Q20.51 5.97 20.28 7.46L20.28 7.46L20.28 7.46Q20.21 7.90 19.83 9.10L19.83 9.10L19.83 9.10Q19.51 10.12 19.50 10.75L19.50 10.75L19.50 10.75Q19.50 10.83 19.73 10.84L19.73 10.84L19.73 10.84Q19.94 10.85 20.23 10.79L20.23 10.79L20.23 10.79Q20.95 10.64 20.96 10.36L20.96 10.36L20.96 10.36Q20.97 9.87 21.47 8.25L21.47 8.25L21.47 8.25Q21.63 7.76 21.77 6.86L21.77 6.86L21.77 6.86Q21.88 6.12 21.92 5.61L21.92 5.61L21.92 5.61Q21.98 4.83 21.86 4.41L21.86 4.41ZM23.71 9.01L23.71 9.01Q23.26 9.63 23.13 9.78L23.13 9.78L23.13 9.78Q23.09 9.69 23.06 9.60L23.06 9.60L23.06 9.60Q22.84 8.99 22.99 7.95L22.99 7.95L22.99 7.95Q23.11 7.14 23.51 6.16L23.51 6.16L23.51 6.16Q23.66 5.80 23.86 5.44L23.86 5.44L23.86 5.44Q23.99 5.22 24.16 5.04L24.16 5.04L24.16 5.04Q24.32 4.88 24.56 4.70L24.56 4.70L24.56 4.70Q24.57 4.69 24.58 4.68L24.58 4.68L24.58 4.68Q24.59 4.68 24.62 4.66L24.62 4.66L24.62 4.66Q24.66 4.63 24.73 4.58L24.73 4.58L24.73 4.58Q24.73 4.58 24.74 4.57L24.74 4.57L24.74 4.57Q24.94 4.74 24.91 5.37L24.91 5.37L24.91 5.37Q24.90 5.48 25.33 5.44L25.33 5.44L25.33 5.44Q25.22 5.98 25.00 6.88L25.00 6.88L25.00 6.88Q24.63 7.77 23.71 9.01L23.71 9.01ZM26.83 4.85L26.83 4.85Q26.83 4.72 26.37 4.77L26.37 4.77L26.37 4.77Q26.35 4.17 25.98 4.01L25.98 4.01L25.98 4.01Q25.40 3.75 24.37 4.17L24.37 4.17L24.37 4.17Q22.95 4.74 22.36 5.81L22.36 5.81L22.36 5.81Q21.42 7.56 21.48 9.26L21.48 9.26L21.48 9.26Q21.51 10.25 21.99 10.56L21.99 10.56L21.99 10.56Q22.22 10.71 22.82 10.63L22.82 10.63L22.82 10.63Q23.38 10.55 23.85 10.22L23.85 10.22L23.85 10.22Q24.12 10.04 24.39 9.75L24.39 9.75L24.39 9.75Q24.31 10.31 24.27 10.81L24.27 10.81L24.27 10.81Q24.27 10.88 24.49 10.90L24.49 10.90L24.49 10.90Q24.71 10.90 24.99 10.85L24.99 10.85L24.99 10.85Q25.71 10.71 25.73 10.42L25.73 10.42L25.73 10.42Q25.81 9.17 26.43 6.64L26.43 6.64L26.43 6.64Q26.80 5.73 26.83 4.85L26.83 4.85ZM30.58 4.08L30.58 4.08Q30.03 4.06 29.26 4.06L29.26 4.06L29.26 4.06Q29.53 3.21 29.91 2.17L29.91 2.17L29.91 2.17Q30.01 1.92 29.33 2.04L29.33 2.04L29.33 2.04Q28.57 2.18 28.47 2.44L28.47 2.44L28.47 2.44Q28.15 3.32 27.90 4.08L27.90 4.08L27.90 4.08Q27.70 4.08 27.55 4.08L27.55 4.08L27.55 4.08Q26.96 4.08 26.52 4.36L26.52 4.36L26.52 4.36Q26.34 4.47 26.36 4.57L26.36 4.57L26.36 4.57Q26.39 4.67 26.60 4.67L26.60 4.67L26.60 4.67Q26.91 4.67 27.73 4.66L27.73 4.66L27.73 4.66Q27.41 5.76 27.22 6.75L27.22 6.75L27.22 6.75Q27.16 7.12 27.07 7.70L27.07 7.70L27.07 7.70Q26.96 8.47 26.93 8.65L26.93 8.65L26.93 8.65Q26.76 9.73 27.05 10.40L27.05 10.40L27.05 10.40Q27.32 11.02 27.89 11.02L27.89 11.02L27.89 11.02Q28.92 11.01 29.57 10.36L29.57 10.36L29.57 10.36Q30.43 9.47 30.58 8.22L30.58 8.22L30.58 8.22Q30.59 8.16 30.37 8.15L30.37 8.15L30.37 8.15Q30.15 8.13 29.87 8.19L29.87 8.19L29.87 8.19Q29.16 8.32 29.11 8.61L29.11 8.61L29.11 8.61Q29.03 9.32 28.53 10.09L28.53 10.09L28.53 10.09Q28.38 9.79 28.33 9.34L28.33 9.34L28.33 9.34Q28.28 8.91 28.47 7.82L28.47 7.82L28.47 7.82Q28.50 7.63 28.62 6.88L28.62 6.88L28.62 6.88Q28.70 6.30 28.78 5.93L28.78 5.93L28.78 5.93Q28.91 5.32 29.09 4.66L29.09 4.66L29.09 4.66Q29.40 4.66 29.63 4.67L29.63 4.67L29.63 4.67Q30.17 4.70 30.66 4.40L30.66 4.40L30.66 4.40Q30.84 4.29 30.81 4.19L30.81 4.19L30.81 4.19Q30.78 4.09 30.58 4.08L30.58 4.08Z"></path></g><!----><!----></svg>